<?xml version="1.0" encoding="UTF-8" standalone="no"?>
<!DOCTYPE svg PUBLIC "-//W3C//DTD SVG 1.1//EN"
 "http://www.w3.org/Graphics/SVG/1.1/DTD/svg11.dtd">
<!-- Generated by graphviz version 2.38.0 (20140413.2041)
 -->
<!-- Title: controllers_diagram Pages: 1 -->
<svg width="648pt" height="513pt"
 viewBox="0.00 0.00 647.52 513.05" xmlns="http://www.w3.org/2000/svg" xmlns:xlink="http://www.w3.org/1999/xlink">
<g id="graph0" class="graph" transform="scale(1 1) rotate(0) translate(219.829 293.5)">
<title>controllers_diagram</title>
<polygon fill="white" stroke="none" points="-219.829,219.547 -219.829,-293.5 427.688,-293.5 427.688,219.547 -219.829,219.547"/>
<!-- _diagram_info -->
<g id="node1" class="node"><title>_diagram_info</title>
<text text-anchor="start" x="224.312" y="-275.1" font-family="Times,serif" font-size="13.00">Controllers diagram</text>
<text text-anchor="start" x="224.312" y="-262.1" font-family="Times,serif" font-size="13.00">Date: Aug 07 2014 &#45; 13:53</text>
<text text-anchor="start" x="224.312" y="-249.1" font-family="Times,serif" font-size="13.00">Migration version: 20140806143439</text>
<text text-anchor="start" x="224.312" y="-236.1" font-family="Times,serif" font-size="13.00">Generated by RailRoady 1.1.1</text>
<text text-anchor="start" x="224.312" y="-223.1" font-family="Times,serif" font-size="13.00">http://railroady.prestonlee.com</text>
</g>
<!-- ApplicationController -->
<g id="node2" class="node"><title>ApplicationController</title>
<path fill="none" stroke="black" d="M-55.5565,85.0419C-55.5565,85.0419 60.0851,85.0419 60.0851,85.0419 66.0851,85.0419 72.0851,79.0419 72.0851,73.0419 72.0851,73.0419 72.0851,-6.9581 72.0851,-6.9581 72.0851,-12.9581 66.0851,-18.9581 60.0851,-18.9581 60.0851,-18.9581 -55.5565,-18.9581 -55.5565,-18.9581 -61.5565,-18.9581 -67.5565,-12.9581 -67.5565,-6.9581 -67.5565,-6.9581 -67.5565,73.0419 -67.5565,73.0419 -67.5565,79.0419 -61.5565,85.0419 -55.5565,85.0419"/>
<text text-anchor="middle" x="2.26431" y="-3.7581" font-family="Times,serif" font-size="14.00">ApplicationController</text>
<polyline fill="none" stroke="black" points="-67.5565,3.0419 72.0851,3.0419 "/>
<text text-anchor="start" x="-59.5565" y="18.2419" font-family="Times,serif" font-size="14.00">current_user</text>
<text text-anchor="start" x="-59.5565" y="32.2419" font-family="Times,serif" font-size="14.00">logged_in?</text>
<polyline fill="none" stroke="black" points="-67.5565,39.0419 72.0851,39.0419 "/>
<polyline fill="none" stroke="black" points="-67.5565,63.0419 72.0851,63.0419 "/>
<text text-anchor="start" x="-59.5565" y="78.2419" font-family="Times,serif" font-size="14.00">_layout</text>
</g>
<!-- ArticlesController -->
<g id="node3" class="node"><title>ArticlesController</title>
<path fill="none" stroke="black" d="M75.7481,213.035C75.7481,213.035 169.61,213.035 169.61,213.035 175.61,213.035 181.61,207.035 181.61,201.035 181.61,201.035 181.61,107.035 181.61,107.035 181.61,101.035 175.61,95.0348 169.61,95.0348 169.61,95.0348 75.7481,95.0348 75.7481,95.0348 69.7481,95.0348 63.7481,101.035 63.7481,107.035 63.7481,107.035 63.7481,201.035 63.7481,201.035 63.7481,207.035 69.7481,213.035 75.7481,213.035"/>
<text text-anchor="middle" x="122.679" y="110.235" font-family="Times,serif" font-size="14.00">ArticlesController</text>
<polyline fill="none" stroke="black" points="63.7481,117.035 181.61,117.035 "/>
<text text-anchor="start" x="71.7481" y="132.235" font-family="Times,serif" font-size="14.00">create</text>
<text text-anchor="start" x="71.7481" y="146.235" font-family="Times,serif" font-size="14.00">index</text>
<polyline fill="none" stroke="black" points="63.7481,153.035 181.61,153.035 "/>
<polyline fill="none" stroke="black" points="63.7481,177.035 181.61,177.035 "/>
<text text-anchor="start" x="71.7481" y="192.235" font-family="Times,serif" font-size="14.00">_layout</text>
<text text-anchor="start" x="71.7481" y="206.235" font-family="Times,serif" font-size="14.00">article_params</text>
</g>
<!-- ApplicationController&#45;&gt;ArticlesController -->
<g id="edge1" class="edge"><title>ApplicationController&#45;&gt;ArticlesController</title>
<path fill="none" stroke="black" d="M54.0299,85.056C57.2171,88.2584 60.4365,91.4932 63.6513,94.7235"/>
</g>
<!-- PhotosController -->
<g id="node4" class="node"><title>PhotosController</title>
<path fill="none" stroke="black" d="M-164.859,215.047C-164.859,215.047 -77.1903,215.047 -77.1903,215.047 -71.1903,215.047 -65.1903,209.047 -65.1903,203.047 -65.1903,203.047 -65.1903,109.047 -65.1903,109.047 -65.1903,103.047 -71.1903,97.0472 -77.1903,97.0472 -77.1903,97.0472 -164.859,97.0472 -164.859,97.0472 -170.859,97.0472 -176.859,103.047 -176.859,109.047 -176.859,109.047 -176.859,203.047 -176.859,203.047 -176.859,209.047 -170.859,215.047 -164.859,215.047"/>
<text text-anchor="middle" x="-121.025" y="112.247" font-family="Times,serif" font-size="14.00">PhotosController</text>
<polyline fill="none" stroke="black" points="-176.859,119.047 -65.1903,119.047 "/>
<text text-anchor="start" x="-168.859" y="134.247" font-family="Times,serif" font-size="14.00">create</text>
<text text-anchor="start" x="-168.859" y="148.247" font-family="Times,serif" font-size="14.00">index</text>
<polyline fill="none" stroke="black" points="-176.859,155.047 -65.1903,155.047 "/>
<polyline fill="none" stroke="black" points="-176.859,179.047 -65.1903,179.047 "/>
<text text-anchor="start" x="-168.859" y="194.247" font-family="Times,serif" font-size="14.00">_layout</text>
<text text-anchor="start" x="-168.859" y="208.247" font-family="Times,serif" font-size="14.00">photo_params</text>
</g>
<!-- ApplicationController&#45;&gt;PhotosController -->
<g id="edge2" class="edge"><title>ApplicationController&#45;&gt;PhotosController</title>
<path fill="none" stroke="black" d="M-50.0214,85.2072C-55.0092,90.1836 -60.0808,95.2435 -65.1013,100.252"/>
</g>
<!-- SessionsController -->
<g id="node5" class="node"><title>SessionsController</title>
<path fill="none" stroke="black" d="M-203.829,-22.6238C-203.829,-22.6238 -106.049,-22.6238 -106.049,-22.6238 -100.049,-22.6238 -94.0493,-28.6238 -94.0493,-34.6238 -94.0493,-34.6238 -94.0493,-126.624 -94.0493,-126.624 -94.0493,-132.624 -100.049,-138.624 -106.049,-138.624 -106.049,-138.624 -203.829,-138.624 -203.829,-138.624 -209.829,-138.624 -215.829,-132.624 -215.829,-126.624 -215.829,-126.624 -215.829,-34.6238 -215.829,-34.6238 -215.829,-28.6238 -209.829,-22.6238 -203.829,-22.6238"/>
<text text-anchor="middle" x="-154.939" y="-123.424" font-family="Times,serif" font-size="14.00">SessionsController</text>
<polyline fill="none" stroke="black" points="-215.829,-116.624 -94.0493,-116.624 "/>
<text text-anchor="start" x="-207.829" y="-101.424" font-family="Times,serif" font-size="14.00">create</text>
<text text-anchor="start" x="-207.829" y="-87.4238" font-family="Times,serif" font-size="14.00">destroy</text>
<text text-anchor="start" x="-207.829" y="-73.4238" font-family="Times,serif" font-size="14.00">new</text>
<polyline fill="none" stroke="black" points="-215.829,-66.6238 -94.0493,-66.6238 "/>
<text text-anchor="start" x="-207.829" y="-51.4238" font-family="Times,serif" font-size="14.00">auth_hash</text>
<polyline fill="none" stroke="black" points="-215.829,-44.6238 -94.0493,-44.6238 "/>
<text text-anchor="start" x="-207.829" y="-29.4238" font-family="Times,serif" font-size="14.00">_layout</text>
</g>
<!-- ApplicationController&#45;&gt;SessionsController -->
<g id="edge3" class="edge"><title>ApplicationController&#45;&gt;SessionsController</title>
<path fill="none" stroke="black" d="M-67.6028,-17.4755C-76.2951,-23.7604 -85.1316,-30.1496 -93.68,-36.3306"/>
</g>
<!-- TweetsController -->
<g id="node6" class="node"><title>TweetsController</title>
<path fill="none" stroke="black" d="M104.605,-23.3058C104.605,-23.3058 193.6,-23.3058 193.6,-23.3058 199.6,-23.3058 205.6,-29.3058 205.6,-35.3058 205.6,-35.3058 205.6,-143.306 205.6,-143.306 205.6,-149.306 199.6,-155.306 193.6,-155.306 193.6,-155.306 104.605,-155.306 104.605,-155.306 98.6047,-155.306 92.6047,-149.306 92.6047,-143.306 92.6047,-143.306 92.6047,-35.3058 92.6047,-35.3058 92.6047,-29.3058 98.6047,-23.3058 104.605,-23.3058"/>
<text text-anchor="middle" x="149.102" y="-140.106" font-family="Times,serif" font-size="14.00">TweetsController</text>
<polyline fill="none" stroke="black" points="92.6047,-133.306 205.6,-133.306 "/>
<text text-anchor="start" x="100.605" y="-118.106" font-family="Times,serif" font-size="14.00">create</text>
<text text-anchor="start" x="100.605" y="-104.106" font-family="Times,serif" font-size="14.00">index</text>
<text text-anchor="start" x="100.605" y="-90.1058" font-family="Times,serif" font-size="14.00">twitter_update</text>
<polyline fill="none" stroke="black" points="92.6047,-83.3058 205.6,-83.3058 "/>
<polyline fill="none" stroke="black" points="92.6047,-59.3058 205.6,-59.3058 "/>
<text text-anchor="start" x="100.605" y="-44.1058" font-family="Times,serif" font-size="14.00">_layout</text>
<text text-anchor="start" x="100.605" y="-30.1058" font-family="Times,serif" font-size="14.00">tweet_params</text>
</g>
<!-- ApplicationController&#45;&gt;TweetsController -->
<g id="edge4" class="edge"><title>ApplicationController&#45;&gt;TweetsController</title>
<path fill="none" stroke="black" d="M64.9627,-19.1994C74.0049,-26.7335 83.2687,-34.4523 92.1897,-41.8853"/>
</g>
<!-- UsersController -->
<g id="node7" class="node"><title>UsersController</title>
<path fill="none" stroke="black" d="M-50.4985,-69.2321C-50.4985,-69.2321 30.9292,-69.2321 30.9292,-69.2321 36.9292,-69.2321 42.9292,-75.2321 42.9292,-81.2321 42.9292,-81.2321 42.9292,-203.232 42.9292,-203.232 42.9292,-209.232 36.9292,-215.232 30.9292,-215.232 30.9292,-215.232 -50.4985,-215.232 -50.4985,-215.232 -56.4985,-215.232 -62.4985,-209.232 -62.4985,-203.232 -62.4985,-203.232 -62.4985,-81.2321 -62.4985,-81.2321 -62.4985,-75.2321 -56.4985,-69.2321 -50.4985,-69.2321"/>
<text text-anchor="middle" x="-9.78463" y="-200.032" font-family="Times,serif" font-size="14.00">UsersController</text>
<polyline fill="none" stroke="black" points="-62.4985,-193.232 42.9292,-193.232 "/>
<text text-anchor="start" x="-54.4985" y="-178.032" font-family="Times,serif" font-size="14.00">show</text>
<text text-anchor="start" x="-54.4985" y="-164.032" font-family="Times,serif" font-size="14.00">signed_in</text>
<text text-anchor="start" x="-54.4985" y="-150.032" font-family="Times,serif" font-size="14.00">update</text>
<polyline fill="none" stroke="black" points="-62.4985,-143.232 42.9292,-143.232 "/>
<polyline fill="none" stroke="black" points="-62.4985,-119.232 42.9292,-119.232 "/>
<text text-anchor="start" x="-54.4985" y="-104.032" font-family="Times,serif" font-size="14.00">_layout</text>
<text text-anchor="start" x="-54.4985" y="-90.0321" font-family="Times,serif" font-size="14.00">set_user</text>
<text text-anchor="start" x="-54.4985" y="-76.0321" font-family="Times,serif" font-size="14.00">user_params</text>
</g>
<!-- ApplicationController&#45;&gt;UsersController -->
<g id="edge5" class="edge"><title>ApplicationController&#45;&gt;UsersController</title>
<path fill="none" stroke="black" d="M-1.31814,-19.0715C-2.39337,-34.7126 -3.59351,-52.1709 -4.7444,-68.9128"/>
</g>
</g>
</svg>
