<?xml version="1.0" encoding="UTF-8" standalone="no"?>
<!DOCTYPE svg PUBLIC "-//W3C//DTD SVG 1.1//EN"
 "http://www.w3.org/Graphics/SVG/1.1/DTD/svg11.dtd">
<!-- Generated by graphviz version 2.38.0 (20140413.2041)
 -->
<!-- Title: models_diagram Pages: 1 -->
<svg width="486pt" height="297pt"
 viewBox="0.00 0.00 485.99 297.00" xmlns="http://www.w3.org/2000/svg" xmlns:xlink="http://www.w3.org/1999/xlink">
<g id="graph0" class="graph" transform="scale(1 1) rotate(0) translate(4 293)">
<title>models_diagram</title>
<polygon fill="white" stroke="none" points="-4,4 -4,-293 481.99,-293 481.99,4 -4,4"/>
<!-- _diagram_info -->
<g id="node1" class="node"><title>_diagram_info</title>
<text text-anchor="start" x="8" y="-274.6" font-family="Times,serif" font-size="13.00">Models diagram</text>
<text text-anchor="start" x="8" y="-261.6" font-family="Times,serif" font-size="13.00">Date: Aug 07 2014 &#45; 13:53</text>
<text text-anchor="start" x="8" y="-248.6" font-family="Times,serif" font-size="13.00">Migration version: 20140806143439</text>
<text text-anchor="start" x="8" y="-235.6" font-family="Times,serif" font-size="13.00">Generated by RailRoady 1.1.1</text>
<text text-anchor="start" x="8" y="-222.6" font-family="Times,serif" font-size="13.00">http://railroady.prestonlee.com</text>
</g>
<!-- Article -->
<g id="node2" class="node"><title>Article</title>
<ellipse fill="none" stroke="black" cx="184.688" cy="-162" rx="34.8198" ry="18"/>
<text text-anchor="middle" x="184.688" y="-157.8" font-family="Times,serif" font-size="14.00">Article</text>
</g>
<!-- User -->
<g id="node5" class="node"><title>User</title>
<ellipse fill="none" stroke="black" cx="254.688" cy="-90" rx="27" ry="18"/>
<text text-anchor="middle" x="254.688" y="-85.8" font-family="Times,serif" font-size="14.00">User</text>
</g>
<!-- Article&#45;&gt;User -->
<g id="edge2" class="edge"><title>Article&#45;&gt;User</title>
<path fill="none" stroke="#28350c" d="M206.991,-138.696C215.256,-130.431 224.614,-121.074 232.838,-112.85"/>
<polygon fill="#28350c" stroke="#28350c" points="206.948,-138.74 196.695,-142.629 203.412,-142.275 199.877,-145.811 199.877,-145.811 199.877,-145.811 203.412,-142.275 203.059,-148.993 206.948,-138.74 206.948,-138.74"/>
<polygon fill="#28350c" stroke="#28350c" points="232.937,-112.751 243.19,-108.862 236.473,-109.215 240.008,-105.68 240.008,-105.68 240.008,-105.68 236.473,-109.215 236.826,-102.498 232.937,-112.751 232.937,-112.751"/>
</g>
<!-- UserArticle -->
<g id="node6" class="node"><title>UserArticle</title>
<ellipse fill="none" stroke="black" cx="184.688" cy="-18" rx="51.2156" ry="18"/>
<text text-anchor="middle" x="184.688" y="-13.8" font-family="Times,serif" font-size="14.00">UserArticle</text>
</g>
<!-- Article&#45;&gt;UserArticle -->
<g id="edge1" class="edge"><title>Article&#45;&gt;UserArticle</title>
<path fill="none" stroke="#37f8e2" d="M184.688,-135.558C184.688,-110.444 184.688,-72.164 184.688,-46.3932"/>
<ellipse fill="none" stroke="#37f8e2" cx="184.688" cy="-139.871" rx="4" ry="4"/>
<polygon fill="#37f8e2" stroke="#37f8e2" points="184.688,-46.1893 189.188,-36.1892 184.688,-41.1893 184.688,-36.1893 184.688,-36.1893 184.688,-36.1893 184.688,-41.1893 180.188,-36.1893 184.688,-46.1893 184.688,-46.1893"/>
</g>
<!-- Photo -->
<g id="node3" class="node"><title>Photo</title>
<ellipse fill="none" stroke="black" cx="306.688" cy="-162" rx="30.9967" ry="18"/>
<text text-anchor="middle" x="306.688" y="-157.8" font-family="Times,serif" font-size="14.00">Photo</text>
</g>
<!-- Photo&#45;&gt;User -->
<g id="edge5" class="edge"><title>Photo&#45;&gt;User</title>
<path fill="none" stroke="#95f6f5" d="M288.857,-136.996C283.435,-129.699 277.487,-121.691 272.094,-114.431"/>
<polygon fill="#95f6f5" stroke="#95f6f5" points="288.925,-137.088 291.276,-147.799 291.906,-141.102 294.888,-145.116 294.888,-145.116 294.888,-145.116 291.906,-141.102 298.5,-142.432 288.925,-137.088 288.925,-137.088"/>
<polygon fill="#95f6f5" stroke="#95f6f5" points="272.047,-114.368 269.696,-103.657 269.065,-110.354 266.083,-106.34 266.083,-106.34 266.083,-106.34 269.065,-110.354 262.471,-109.024 272.047,-114.368 272.047,-114.368"/>
</g>
<!-- UserPhoto -->
<g id="node7" class="node"><title>UserPhoto</title>
<ellipse fill="none" stroke="black" cx="309.688" cy="-18" rx="47.3909" ry="18"/>
<text text-anchor="middle" x="309.688" y="-13.8" font-family="Times,serif" font-size="14.00">UserPhoto</text>
</g>
<!-- Photo&#45;&gt;UserPhoto -->
<g id="edge4" class="edge"><title>Photo&#45;&gt;UserPhoto</title>
<path fill="none" stroke="#08edbd" d="M307.225,-135.558C307.756,-110.444 308.565,-72.164 309.109,-46.3932"/>
<ellipse fill="none" stroke="#08edbd" cx="307.134" cy="-139.872" rx="4" ry="4"/>
<polygon fill="#08edbd" stroke="#08edbd" points="309.113,-46.187 313.824,-36.2844 309.219,-41.1881 309.325,-36.1893 309.325,-36.1893 309.325,-36.1893 309.219,-41.1881 304.826,-36.0942 309.113,-46.187 309.113,-46.187"/>
</g>
<!-- Tweet -->
<g id="node4" class="node"><title>Tweet</title>
<ellipse fill="none" stroke="black" cx="425.688" cy="-162" rx="31.6703" ry="18"/>
<text text-anchor="middle" x="425.688" y="-157.8" font-family="Times,serif" font-size="14.00">Tweet</text>
</g>
<!-- Tweet&#45;&gt;User -->
<g id="edge8" class="edge"><title>Tweet&#45;&gt;User</title>
<path fill="none" stroke="#6a6a2a" d="M391.287,-146.918C360.731,-134.41 316.423,-116.272 286.634,-104.077"/>
<polygon fill="#6a6a2a" stroke="#6a6a2a" points="391.568,-147.033 399.118,-154.986 396.196,-148.927 400.823,-150.821 400.823,-150.821 400.823,-150.821 396.196,-148.927 402.528,-146.657 391.568,-147.033 391.568,-147.033"/>
<polygon fill="#6a6a2a" stroke="#6a6a2a" points="286.383,-103.975 278.834,-96.0218 281.756,-102.081 277.129,-100.186 277.129,-100.186 277.129,-100.186 281.756,-102.081 275.424,-104.351 286.383,-103.975 286.383,-103.975"/>
</g>
<!-- UserTweet -->
<g id="node8" class="node"><title>UserTweet</title>
<ellipse fill="none" stroke="black" cx="425.688" cy="-18" rx="48.0672" ry="18"/>
<text text-anchor="middle" x="425.688" y="-13.8" font-family="Times,serif" font-size="14.00">UserTweet</text>
</g>
<!-- Tweet&#45;&gt;UserTweet -->
<g id="edge7" class="edge"><title>Tweet&#45;&gt;UserTweet</title>
<path fill="none" stroke="#98ac1b" d="M425.688,-135.558C425.688,-110.444 425.688,-72.164 425.688,-46.3932"/>
<ellipse fill="none" stroke="#98ac1b" cx="425.688" cy="-139.871" rx="4" ry="4"/>
<polygon fill="#98ac1b" stroke="#98ac1b" points="425.688,-46.1893 430.188,-36.1892 425.688,-41.1893 425.688,-36.1893 425.688,-36.1893 425.688,-36.1893 425.688,-41.1893 421.188,-36.1893 425.688,-46.1893 425.688,-46.1893"/>
</g>
<!-- User&#45;&gt;UserArticle -->
<g id="edge10" class="edge"><title>User&#45;&gt;UserArticle</title>
<path fill="none" stroke="#214ba0" d="M234.517,-68.8291C226.258,-60.5704 216.648,-50.9602 208.083,-42.3954"/>
<ellipse fill="none" stroke="#214ba0" cx="237.355" cy="-71.6675" rx="4.00002" ry="4.00002"/>
<polygon fill="#214ba0" stroke="#214ba0" points="207.957,-42.2693 204.068,-32.0162 204.421,-38.7337 200.886,-35.1982 200.886,-35.1982 200.886,-35.1982 204.421,-38.7337 197.704,-38.3802 207.957,-42.2693 207.957,-42.2693"/>
</g>
<!-- User&#45;&gt;UserPhoto -->
<g id="edge12" class="edge"><title>User&#45;&gt;UserPhoto</title>
<path fill="none" stroke="#5c2834" d="M271.665,-67.3922C277.568,-59.8791 284.233,-51.3964 290.316,-43.6555"/>
<ellipse fill="none" stroke="#5c2834" cx="269.093" cy="-70.6658" rx="4.00002" ry="4.00002"/>
<polygon fill="#5c2834" stroke="#5c2834" points="290.445,-43.4911 300.161,-38.4081 293.534,-39.5595 296.623,-35.6278 296.623,-35.6278 296.623,-35.6278 293.534,-39.5595 293.085,-32.8476 290.445,-43.4911 290.445,-43.4911"/>
</g>
<!-- User&#45;&gt;UserTweet -->
<g id="edge11" class="edge"><title>User&#45;&gt;UserTweet</title>
<path fill="none" stroke="#24f041" d="M284.474,-76.8068C312.223,-65.4477 353.838,-48.412 384.712,-35.7738"/>
<ellipse fill="none" stroke="#24f041" cx="280.745" cy="-78.3333" rx="4.00002" ry="4.00002"/>
<polygon fill="#24f041" stroke="#24f041" points="385.072,-35.6263 396.032,-36.0024 389.7,-33.7321 394.327,-31.8378 394.327,-31.8378 394.327,-31.8378 389.7,-33.7321 392.622,-27.6732 385.072,-35.6263 385.072,-35.6263"/>
</g>
<!-- ActiveRecord::Base -->
<g id="node9" class="node"><title>ActiveRecord::Base</title>
<ellipse fill="none" stroke="black" cx="306.688" cy="-252.5" rx="81.1422" ry="18"/>
<text text-anchor="middle" x="306.688" y="-248.3" font-family="Times,serif" font-size="14.00">ActiveRecord::Base</text>
</g>
<!-- ActiveRecord::Base&#45;&gt;Article -->
<g id="edge3" class="edge"><title>ActiveRecord::Base&#45;&gt;Article</title>
<path fill="none" stroke="black" d="M284.026,-235.061C261.011,-218.365 225.75,-192.787 204.014,-177.019"/>
</g>
<!-- ActiveRecord::Base&#45;&gt;Photo -->
<g id="edge6" class="edge"><title>ActiveRecord::Base&#45;&gt;Photo</title>
<path fill="none" stroke="black" d="M306.688,-234.436C306.688,-218.765 306.688,-195.666 306.688,-180.011"/>
</g>
<!-- ActiveRecord::Base&#45;&gt;Tweet -->
<g id="edge9" class="edge"><title>ActiveRecord::Base&#45;&gt;Tweet</title>
<path fill="none" stroke="black" d="M328.792,-235.061C351.376,-218.265 386.048,-192.48 407.216,-176.737"/>
</g>
<!-- ActiveRecord::Base&#45;&gt;User -->
<g id="edge13" class="edge"><title>ActiveRecord::Base&#45;&gt;User</title>
<path fill="none" stroke="black" d="M294.707,-234.439C285.512,-220.465 273.305,-199.834 266.688,-180 258.644,-155.893 255.979,-126.403 255.104,-108.158"/>
</g>
<!-- ActiveRecord::Base&#45;&gt;UserArticle -->
<g id="edge14" class="edge"><title>ActiveRecord::Base&#45;&gt;UserArticle</title>
<path fill="none" stroke="black" d="M268.891,-236.442C221.083,-217.22 144.472,-185.75 140.688,-180 110.263,-133.768 149.73,-66.9013 171.734,-35.9259"/>
</g>
<!-- ActiveRecord::Base&#45;&gt;UserPhoto -->
<g id="edge15" class="edge"><title>ActiveRecord::Base&#45;&gt;UserPhoto</title>
<path fill="none" stroke="black" d="M319.399,-234.655C329.007,-220.805 341.413,-200.233 346.688,-180 360.29,-127.826 333.96,-65.454 319.012,-36.0003"/>
</g>
<!-- ActiveRecord::Base&#45;&gt;UserTweet -->
<g id="edge16" class="edge"><title>ActiveRecord::Base&#45;&gt;UserTweet</title>
<path fill="none" stroke="black" d="M368.77,-240.816C403.93,-231.244 445.086,-213.314 466.688,-180 496.818,-133.534 458.69,-66.2046 437.743,-35.4439"/>
</g>
</g>
</svg>
