<?xml version="1.0" encoding="UTF-8" standalone="no"?>
<!DOCTYPE svg PUBLIC "-//W3C//DTD SVG 1.1//EN"
 "http://www.w3.org/Graphics/SVG/1.1/DTD/svg11.dtd">
<!-- Generated by graphviz version 2.38.0 (20140413.2041)
 -->
<!-- Title: models_diagram Pages: 1 -->
<svg width="614pt" height="548pt"
 viewBox="0.00 0.00 613.73 548.00" xmlns="http://www.w3.org/2000/svg" xmlns:xlink="http://www.w3.org/1999/xlink">
<g id="graph0" class="graph" transform="scale(1 1) rotate(0) translate(4 544)">
<title>models_diagram</title>
<polygon fill="white" stroke="none" points="-4,4 -4,-544 609.728,-544 609.728,4 -4,4"/>
<!-- _diagram_info -->
<g id="node1" class="node"><title>_diagram_info</title>
<text text-anchor="start" x="8" y="-525.6" font-family="Times,serif" font-size="13.00">Models diagram</text>
<text text-anchor="start" x="8" y="-512.6" font-family="Times,serif" font-size="13.00">Date: Aug 07 2014 &#45; 13:53</text>
<text text-anchor="start" x="8" y="-499.6" font-family="Times,serif" font-size="13.00">Migration version: 20140806143439</text>
<text text-anchor="start" x="8" y="-486.6" font-family="Times,serif" font-size="13.00">Generated by RailRoady 1.1.1</text>
<text text-anchor="start" x="8" y="-473.6" font-family="Times,serif" font-size="13.00">http://railroady.prestonlee.com</text>
</g>
<!-- Article -->
<g id="node2" class="node"><title>Article</title>
<path fill="none" stroke="black" d="M62.1824,-288.5C62.1824,-288.5 171.193,-288.5 171.193,-288.5 177.193,-288.5 183.193,-294.5 183.193,-300.5 183.193,-300.5 183.193,-418.5 183.193,-418.5 183.193,-424.5 177.193,-430.5 171.193,-430.5 171.193,-430.5 62.1824,-430.5 62.1824,-430.5 56.1824,-430.5 50.1824,-424.5 50.1824,-418.5 50.1824,-418.5 50.1824,-300.5 50.1824,-300.5 50.1824,-294.5 56.1824,-288.5 62.1824,-288.5"/>
<text text-anchor="middle" x="116.688" y="-415.3" font-family="Times,serif" font-size="14.00">Article</text>
<polyline fill="none" stroke="black" points="50.1824,-408.5 183.193,-408.5 "/>
<text text-anchor="start" x="58.1824" y="-393.3" font-family="Times,serif" font-size="14.00">id :integer</text>
<text text-anchor="start" x="58.1824" y="-379.3" font-family="Times,serif" font-size="14.00">title :string</text>
<text text-anchor="start" x="58.1824" y="-365.3" font-family="Times,serif" font-size="14.00">abstract :text</text>
<text text-anchor="start" x="58.1824" y="-351.3" font-family="Times,serif" font-size="14.00">url :string</text>
<text text-anchor="start" x="58.1824" y="-337.3" font-family="Times,serif" font-size="14.00">byline :string</text>
<text text-anchor="start" x="58.1824" y="-323.3" font-family="Times,serif" font-size="14.00">pubdate :datetime</text>
<text text-anchor="start" x="58.1824" y="-309.3" font-family="Times,serif" font-size="14.00">created_at :datetime</text>
<text text-anchor="start" x="58.1824" y="-295.3" font-family="Times,serif" font-size="14.00">updated_at :datetime</text>
</g>
<!-- User -->
<g id="node5" class="node"><title>User</title>
<path fill="none" stroke="black" d="M177.182,-137.5C177.182,-137.5 286.193,-137.5 286.193,-137.5 292.193,-137.5 298.193,-143.5 298.193,-149.5 298.193,-149.5 298.193,-239.5 298.193,-239.5 298.193,-245.5 292.193,-251.5 286.193,-251.5 286.193,-251.5 177.182,-251.5 177.182,-251.5 171.182,-251.5 165.182,-245.5 165.182,-239.5 165.182,-239.5 165.182,-149.5 165.182,-149.5 165.182,-143.5 171.182,-137.5 177.182,-137.5"/>
<text text-anchor="middle" x="231.688" y="-236.3" font-family="Times,serif" font-size="14.00">User</text>
<polyline fill="none" stroke="black" points="165.182,-229.5 298.193,-229.5 "/>
<text text-anchor="start" x="173.182" y="-214.3" font-family="Times,serif" font-size="14.00">id :integer</text>
<text text-anchor="start" x="173.182" y="-200.3" font-family="Times,serif" font-size="14.00">name :string</text>
<text text-anchor="start" x="173.182" y="-186.3" font-family="Times,serif" font-size="14.00">created_at :datetime</text>
<text text-anchor="start" x="173.182" y="-172.3" font-family="Times,serif" font-size="14.00">updated_at :datetime</text>
<text text-anchor="start" x="173.182" y="-158.3" font-family="Times,serif" font-size="14.00">provider :string</text>
<text text-anchor="start" x="173.182" y="-144.3" font-family="Times,serif" font-size="14.00">uid :string</text>
</g>
<!-- Article&#45;&gt;User -->
<g id="edge2" class="edge"><title>Article&#45;&gt;User</title>
<path fill="none" stroke="#60ce6f" d="M172.03,-280.058C176.77,-273.34 181.529,-266.594 186.179,-260.004"/>
<polygon fill="#60ce6f" stroke="#60ce6f" points="171.89,-280.256 162.449,-285.833 169.008,-284.342 166.125,-288.427 166.125,-288.427 166.125,-288.427 169.008,-284.342 169.802,-291.022 171.89,-280.256 171.89,-280.256"/>
<polygon fill="#60ce6f" stroke="#60ce6f" points="186.236,-259.923 195.678,-254.346 189.118,-255.838 192.001,-251.752 192.001,-251.752 192.001,-251.752 189.118,-255.838 188.324,-249.158 186.236,-259.923 186.236,-259.923"/>
</g>
<!-- UserArticle -->
<g id="node6" class="node"><title>UserArticle</title>
<path fill="none" stroke="black" d="M62.1824,-0.5C62.1824,-0.5 171.193,-0.5 171.193,-0.5 177.193,-0.5 183.193,-6.5 183.193,-12.5 183.193,-12.5 183.193,-88.5 183.193,-88.5 183.193,-94.5 177.193,-100.5 171.193,-100.5 171.193,-100.5 62.1824,-100.5 62.1824,-100.5 56.1824,-100.5 50.1824,-94.5 50.1824,-88.5 50.1824,-88.5 50.1824,-12.5 50.1824,-12.5 50.1824,-6.5 56.1824,-0.5 62.1824,-0.5"/>
<text text-anchor="middle" x="116.688" y="-85.3" font-family="Times,serif" font-size="14.00">UserArticle</text>
<polyline fill="none" stroke="black" points="50.1824,-78.5 183.193,-78.5 "/>
<text text-anchor="start" x="58.1824" y="-63.3" font-family="Times,serif" font-size="14.00">id :integer</text>
<text text-anchor="start" x="58.1824" y="-49.3" font-family="Times,serif" font-size="14.00">user_id :integer</text>
<text text-anchor="start" x="58.1824" y="-35.3" font-family="Times,serif" font-size="14.00">article_id :integer</text>
<text text-anchor="start" x="58.1824" y="-21.3" font-family="Times,serif" font-size="14.00">created_at :datetime</text>
<text text-anchor="start" x="58.1824" y="-7.3" font-family="Times,serif" font-size="14.00">updated_at :datetime</text>
</g>
<!-- Article&#45;&gt;UserArticle -->
<g id="edge1" class="edge"><title>Article&#45;&gt;UserArticle</title>
<path fill="none" stroke="#dec1be" d="M116.688,-280.248C116.688,-227.575 116.688,-159.197 116.688,-110.966"/>
<ellipse fill="none" stroke="#dec1be" cx="116.688" cy="-284.453" rx="4" ry="4"/>
<polygon fill="#dec1be" stroke="#dec1be" points="116.688,-110.689 121.188,-100.689 116.688,-105.689 116.688,-100.689 116.688,-100.689 116.688,-100.689 116.688,-105.689 112.188,-100.689 116.688,-110.689 116.688,-110.689"/>
</g>
<!-- Photo -->
<g id="node3" class="node"><title>Photo</title>
<path fill="none" stroke="black" d="M252.182,-309.5C252.182,-309.5 361.193,-309.5 361.193,-309.5 367.193,-309.5 373.193,-315.5 373.193,-321.5 373.193,-321.5 373.193,-397.5 373.193,-397.5 373.193,-403.5 367.193,-409.5 361.193,-409.5 361.193,-409.5 252.182,-409.5 252.182,-409.5 246.182,-409.5 240.182,-403.5 240.182,-397.5 240.182,-397.5 240.182,-321.5 240.182,-321.5 240.182,-315.5 246.182,-309.5 252.182,-309.5"/>
<text text-anchor="middle" x="306.688" y="-394.3" font-family="Times,serif" font-size="14.00">Photo</text>
<polyline fill="none" stroke="black" points="240.182,-387.5 373.193,-387.5 "/>
<text text-anchor="start" x="248.182" y="-372.3" font-family="Times,serif" font-size="14.00">id :integer</text>
<text text-anchor="start" x="248.182" y="-358.3" font-family="Times,serif" font-size="14.00">title :string</text>
<text text-anchor="start" x="248.182" y="-344.3" font-family="Times,serif" font-size="14.00">url :string</text>
<text text-anchor="start" x="248.182" y="-330.3" font-family="Times,serif" font-size="14.00">created_at :datetime</text>
<text text-anchor="start" x="248.182" y="-316.3" font-family="Times,serif" font-size="14.00">updated_at :datetime</text>
</g>
<!-- Photo&#45;&gt;User -->
<g id="edge5" class="edge"><title>Photo&#45;&gt;User</title>
<path fill="none" stroke="#5230a6" d="M279.78,-300.02C273.933,-287.313 267.712,-273.794 261.753,-260.841"/>
<polygon fill="#5230a6" stroke="#5230a6" points="279.802,-300.068 279.894,-311.033 281.892,-304.61 283.982,-309.152 283.982,-309.152 283.982,-309.152 281.892,-304.61 288.07,-307.271 279.802,-300.068 279.802,-300.068"/>
<polygon fill="#5230a6" stroke="#5230a6" points="261.648,-260.614 261.556,-249.648 259.558,-256.072 257.468,-251.529 257.468,-251.529 257.468,-251.529 259.558,-256.072 253.38,-253.41 261.648,-260.614 261.648,-260.614"/>
</g>
<!-- UserPhoto -->
<g id="node7" class="node"><title>UserPhoto</title>
<path fill="none" stroke="black" d="M272.182,-0.5C272.182,-0.5 381.193,-0.5 381.193,-0.5 387.193,-0.5 393.193,-6.5 393.193,-12.5 393.193,-12.5 393.193,-88.5 393.193,-88.5 393.193,-94.5 387.193,-100.5 381.193,-100.5 381.193,-100.5 272.182,-100.5 272.182,-100.5 266.182,-100.5 260.182,-94.5 260.182,-88.5 260.182,-88.5 260.182,-12.5 260.182,-12.5 260.182,-6.5 266.182,-0.5 272.182,-0.5"/>
<text text-anchor="middle" x="326.688" y="-85.3" font-family="Times,serif" font-size="14.00">UserPhoto</text>
<polyline fill="none" stroke="black" points="260.182,-78.5 393.193,-78.5 "/>
<text text-anchor="start" x="268.182" y="-63.3" font-family="Times,serif" font-size="14.00">id :integer</text>
<text text-anchor="start" x="268.182" y="-49.3" font-family="Times,serif" font-size="14.00">user_id :integer</text>
<text text-anchor="start" x="268.182" y="-35.3" font-family="Times,serif" font-size="14.00">photo_id :integer</text>
<text text-anchor="start" x="268.182" y="-21.3" font-family="Times,serif" font-size="14.00">created_at :datetime</text>
<text text-anchor="start" x="268.182" y="-7.3" font-family="Times,serif" font-size="14.00">updated_at :datetime</text>
</g>
<!-- Photo&#45;&gt;UserPhoto -->
<g id="edge4" class="edge"><title>Photo&#45;&gt;UserPhoto</title>
<path fill="none" stroke="#d7e5ec" d="M310.441,-300.885C313.974,-246.654 319.242,-165.79 322.814,-110.964"/>
<ellipse fill="none" stroke="#d7e5ec" cx="310.161" cy="-305.184" rx="4" ry="4"/>
<polygon fill="#d7e5ec" stroke="#d7e5ec" points="322.832,-110.681 327.973,-100.995 323.157,-105.692 323.482,-100.702 323.482,-100.702 323.482,-100.702 323.157,-105.692 318.992,-100.41 322.832,-110.681 322.832,-110.681"/>
</g>
<!-- Tweet -->
<g id="node4" class="node"><title>Tweet</title>
<path fill="none" stroke="black" d="M442.182,-316.5C442.182,-316.5 551.193,-316.5 551.193,-316.5 557.193,-316.5 563.193,-322.5 563.193,-328.5 563.193,-328.5 563.193,-390.5 563.193,-390.5 563.193,-396.5 557.193,-402.5 551.193,-402.5 551.193,-402.5 442.182,-402.5 442.182,-402.5 436.182,-402.5 430.182,-396.5 430.182,-390.5 430.182,-390.5 430.182,-328.5 430.182,-328.5 430.182,-322.5 436.182,-316.5 442.182,-316.5"/>
<text text-anchor="middle" x="496.688" y="-387.3" font-family="Times,serif" font-size="14.00">Tweet</text>
<polyline fill="none" stroke="black" points="430.182,-380.5 563.193,-380.5 "/>
<text text-anchor="start" x="438.182" y="-365.3" font-family="Times,serif" font-size="14.00">id :integer</text>
<text text-anchor="start" x="438.182" y="-351.3" font-family="Times,serif" font-size="14.00">data :string</text>
<text text-anchor="start" x="438.182" y="-337.3" font-family="Times,serif" font-size="14.00">created_at :datetime</text>
<text text-anchor="start" x="438.182" y="-323.3" font-family="Times,serif" font-size="14.00">updated_at :datetime</text>
</g>
<!-- Tweet&#45;&gt;User -->
<g id="edge8" class="edge"><title>Tweet&#45;&gt;User</title>
<path fill="none" stroke="#f44522" d="M421.271,-311.799C408.404,-303.848 395.167,-295.681 382.688,-288 358.088,-272.859 331.204,-256.371 307.027,-241.565"/>
<polygon fill="#f44522" stroke="#f44522" points="421.6,-312.002 427.741,-321.087 425.853,-314.631 430.107,-317.259 430.107,-317.259 430.107,-317.259 425.853,-314.631 432.472,-313.431 421.6,-312.002 421.6,-312.002"/>
<polygon fill="#f44522" stroke="#f44522" points="306.779,-241.414 300.601,-232.354 302.515,-238.803 298.251,-236.192 298.251,-236.192 298.251,-236.192 302.515,-238.803 295.901,-240.03 306.779,-241.414 306.779,-241.414"/>
</g>
<!-- UserTweet -->
<g id="node8" class="node"><title>UserTweet</title>
<path fill="none" stroke="black" d="M442.182,-0.5C442.182,-0.5 551.193,-0.5 551.193,-0.5 557.193,-0.5 563.193,-6.5 563.193,-12.5 563.193,-12.5 563.193,-88.5 563.193,-88.5 563.193,-94.5 557.193,-100.5 551.193,-100.5 551.193,-100.5 442.182,-100.5 442.182,-100.5 436.182,-100.5 430.182,-94.5 430.182,-88.5 430.182,-88.5 430.182,-12.5 430.182,-12.5 430.182,-6.5 436.182,-0.5 442.182,-0.5"/>
<text text-anchor="middle" x="496.688" y="-85.3" font-family="Times,serif" font-size="14.00">UserTweet</text>
<polyline fill="none" stroke="black" points="430.182,-78.5 563.193,-78.5 "/>
<text text-anchor="start" x="438.182" y="-63.3" font-family="Times,serif" font-size="14.00">id :integer</text>
<text text-anchor="start" x="438.182" y="-49.3" font-family="Times,serif" font-size="14.00">user_id :integer</text>
<text text-anchor="start" x="438.182" y="-35.3" font-family="Times,serif" font-size="14.00">tweet_id :integer</text>
<text text-anchor="start" x="438.182" y="-21.3" font-family="Times,serif" font-size="14.00">created_at :datetime</text>
<text text-anchor="start" x="438.182" y="-7.3" font-family="Times,serif" font-size="14.00">updated_at :datetime</text>
</g>
<!-- Tweet&#45;&gt;UserTweet -->
<g id="edge7" class="edge"><title>Tweet&#45;&gt;UserTweet</title>
<path fill="none" stroke="#97a331" d="M496.688,-308.258C496.688,-254.115 496.688,-168.016 496.688,-110.645"/>
<ellipse fill="none" stroke="#97a331" cx="496.688" cy="-312.457" rx="4" ry="4"/>
<polygon fill="#97a331" stroke="#97a331" points="496.688,-110.635 501.188,-100.635 496.688,-105.635 496.688,-100.635 496.688,-100.635 496.688,-100.635 496.688,-105.635 492.188,-100.635 496.688,-110.635 496.688,-110.635"/>
</g>
<!-- User&#45;&gt;UserArticle -->
<g id="edge10" class="edge"><title>User&#45;&gt;UserArticle</title>
<path fill="none" stroke="#787db5" d="M181.15,-131.096C175.113,-123.642 168.972,-116.06 162.999,-108.685"/>
<ellipse fill="none" stroke="#787db5" cx="183.719" cy="-134.269" rx="4.00002" ry="4.00002"/>
<polygon fill="#787db5" stroke="#787db5" points="162.89,-108.55 160.094,-97.9465 159.743,-104.664 156.596,-100.779 156.596,-100.779 156.596,-100.779 159.743,-104.664 153.099,-103.611 162.89,-108.55 162.89,-108.55"/>
</g>
<!-- User&#45;&gt;UserPhoto -->
<g id="edge12" class="edge"><title>User&#45;&gt;UserPhoto</title>
<path fill="none" stroke="#ee0f6c" d="M273.821,-130.521C278.51,-123.513 283.269,-116.4 287.913,-109.458"/>
<ellipse fill="none" stroke="#ee0f6c" cx="271.458" cy="-134.053" rx="4.00002" ry="4.00002"/>
<polygon fill="#ee0f6c" stroke="#ee0f6c" points="288.159,-109.09 297.46,-103.281 290.939,-104.934 293.72,-100.779 293.72,-100.779 293.72,-100.779 290.939,-104.934 289.979,-98.2764 288.159,-109.09 288.159,-109.09"/>
</g>
<!-- User&#45;&gt;UserTweet -->
<g id="edge11" class="edge"><title>User&#45;&gt;UserTweet</title>
<path fill="none" stroke="#94f786" d="M305.413,-153.995C341.454,-134.682 384.773,-111.469 421.065,-92.0223"/>
<ellipse fill="none" stroke="#94f786" cx="301.742" cy="-155.961" rx="4.00002" ry="4.00002"/>
<polygon fill="#94f786" stroke="#94f786" points="421.317,-91.8872 432.257,-91.1304 425.725,-89.5256 430.132,-87.164 430.132,-87.164 430.132,-87.164 425.725,-89.5256 428.006,-83.1975 421.317,-91.8872 421.317,-91.8872"/>
</g>
<!-- ActiveRecord::Base -->
<g id="node9" class="node"><title>ActiveRecord::Base</title>
<ellipse fill="none" stroke="black" cx="306.688" cy="-503.5" rx="81.1422" ry="18"/>
<text text-anchor="middle" x="306.688" y="-499.3" font-family="Times,serif" font-size="14.00">ActiveRecord::Base</text>
</g>
<!-- ActiveRecord::Base&#45;&gt;Article -->
<g id="edge3" class="edge"><title>ActiveRecord::Base&#45;&gt;Article</title>
<path fill="none" stroke="black" d="M280.017,-486.42C257.518,-472.525 224.746,-451.501 197.688,-431 192.933,-427.397 188.101,-423.594 183.285,-419.696"/>
</g>
<!-- ActiveRecord::Base&#45;&gt;Photo -->
<g id="edge6" class="edge"><title>ActiveRecord::Base&#45;&gt;Photo</title>
<path fill="none" stroke="black" d="M306.688,-485.371C306.688,-466.709 306.688,-436 306.688,-409.706"/>
</g>
<!-- ActiveRecord::Base&#45;&gt;Tweet -->
<g id="edge9" class="edge"><title>ActiveRecord::Base&#45;&gt;Tweet</title>
<path fill="none" stroke="black" d="M333.358,-486.42C355.858,-472.525 388.629,-451.501 415.688,-431 427.278,-422.218 439.325,-412.243 450.475,-402.617"/>
</g>
<!-- ActiveRecord::Base&#45;&gt;User -->
<g id="edge13" class="edge"><title>ActiveRecord::Base&#45;&gt;User</title>
<path fill="none" stroke="black" d="M280.592,-486.372C262.848,-473.756 240.821,-454.447 230.688,-431 205.951,-373.766 211.041,-301.151 219.2,-251.79"/>
</g>
<!-- ActiveRecord::Base&#45;&gt;UserArticle -->
<g id="edge14" class="edge"><title>ActiveRecord::Base&#45;&gt;UserArticle</title>
<path fill="none" stroke="black" d="M271.707,-487.061C255.247,-480.222 235.204,-472.5 216.688,-467 140.151,-444.266 91.1716,-492.855 40.6877,-431 -37.9122,-334.695 36.779,-179.394 84.2551,-100.658"/>
</g>
<!-- ActiveRecord::Base&#45;&gt;UserPhoto -->
<g id="edge15" class="edge"><title>ActiveRecord::Base&#45;&gt;UserPhoto</title>
<path fill="none" stroke="black" d="M332.784,-486.372C350.528,-473.756 372.554,-454.447 382.688,-431 430.709,-319.89 382.317,-175.262 350.207,-100.714"/>
</g>
<!-- ActiveRecord::Base&#45;&gt;UserTweet -->
<g id="edge16" class="edge"><title>ActiveRecord::Base&#45;&gt;UserTweet</title>
<path fill="none" stroke="black" d="M374.848,-493.639C445.434,-482.898 548.72,-462.261 572.688,-431 648.118,-332.616 575.347,-178.926 528.814,-100.751"/>
</g>
</g>
</svg>
